<svg width="144" height="25" viewBox="0 0 144 25" fill="none" xmlns="http://www.w3.org/2000/svg">
<path fill-rule="evenodd" clip-rule="evenodd" d="M8.66071 0.205322L8.11381 0.295703L7.3827 0.521656L6.97396 0.781502L6.69764 0.973562L6.19679 1.46501L5.55203 2.31798L5.28146 2.945L5.09148 3.61156L0.796898 20.0892L0.526327 21.1172L0.428461 21.4279L0.382407 21.6934L0.296055 22.055V22.3769L0.25 22.6424L0.296055 23.0491L0.336352 23.405L0.526327 23.8117L0.750843 24.1224L0.986873 24.3879L1.3438 24.5743L1.75829 24.7099L2.21307 24.7494L2.62757 24.7946H20.7788H21.3775L21.5617 24.7494L21.602 24.7099L21.6941 24.3427L22.2526 22.3769L22.385 21.7443L22.7534 20.3942L23.2542 18.468L23.3463 18.2025L23.3866 17.9709L23.3463 17.9257L23.2542 17.8918H14.4751L14.429 17.8409V17.7506L14.5212 17.3947L14.7399 16.5869L14.8838 16.0503L15.5228 13.4405L15.8913 12.1356L16.4842 9.89305L16.9851 8.01764L17.4859 6.17047L17.578 6.04055L17.6759 5.99536H23.8011L23.8932 5.95582L23.9335 5.85979L24.348 4.24988L24.7625 2.76989L25.0389 1.68531L25.3958 0.250513L25.3555 0.205322H8.66071ZM30.9741 0.205322L30.7496 0.250513L30.7093 0.295703L30.6172 0.651579L30.4733 1.2786L25.131 21.6934L24.987 22.3769L24.941 22.9531L25.0849 23.4897L25.3094 23.9417L25.7642 24.3879L26.1327 24.5743L26.7256 24.7099L27.1401 24.7494L27.4164 24.7946H42.8677H43.5585L43.6506 24.7494V24.6647L43.9212 23.5801L44.0594 23.1791L44.376 21.925L45.4353 17.9709L45.3892 17.9257L45.3374 17.8918H39.4885L39.2985 17.8409L39.2524 17.7957L39.6669 16.2649L43.6506 0.877532L43.7831 0.425626L43.8291 0.295703L43.7831 0.205322H30.9741ZM55.2219 0.205322L54.8937 0.250513L54.5771 0.295703L54.2547 0.380436L53.846 0.521656L53.1494 0.928371L52.8385 1.14867L52.4758 1.46501L52.1477 1.82653L51.9692 2.18241L51.739 2.62867L51.2381 4.28377L46.1146 23.4502L45.7922 24.7494L45.8382 24.7946H57.9679L58.1924 24.7494L58.2269 24.7099L58.8371 22.5972L59.0156 21.7895L59.3783 20.4902L59.9252 18.3324L60.0173 18.0669L60.0633 18.016L60.1497 17.9709H65.4632L65.5093 18.016L65.5553 18.1008V24.7099L65.5899 24.7946H77.2532H77.9498L78.0361 24.7494L78.0822 24.6647V0.340894L78.0361 0.250513L77.9498 0.205322H65.5899L65.5553 0.295703V12.1356L65.5093 12.226H61.6177L61.5659 12.1808L61.6177 12.0057L61.7155 11.7346L62.1703 10.1698L62.5848 8.45825L62.8093 7.65047L63.0799 6.71276L63.3044 5.72987L63.811 3.84316L64.0471 3.17095L64.5537 1.2786L64.8127 0.295703L64.7667 0.250513L64.6803 0.205322H55.2219ZM89.78 0.205322L89.1928 0.295703L88.4675 0.476466L87.8227 0.826692L87.5521 1.0131L87.0916 1.42547L86.8095 1.77569L86.5965 2.36317L86.2684 3.39126L80.8742 23.6818L80.5979 24.5178V24.7099L80.644 24.7494L80.7303 24.7946H92.526L92.7218 24.7494L92.7621 24.7099L93.6313 21.5692L93.6774 21.3375L94.0919 19.9028L94.5006 18.2928L94.5927 18.0669L94.633 18.016L94.7712 17.9709H100.039L100.085 18.0669V24.6647L100.125 24.7494L100.171 24.7946H111.875H112.566L112.612 24.7494L112.658 24.6647V0.340894L112.612 0.250513L112.566 0.205322H100.171L100.125 0.250513L100.085 0.340894V12.226L100.039 12.2825H96.1413L96.055 12.226V12.1808L96.3313 11.1075L98.9334 1.55539L99.25 0.380436V0.250513L99.1694 0.205322H89.78ZM123.354 0.205322L122.945 0.250513L122.577 0.340894L122.076 0.561198L121.437 1.0131L121.022 1.5102L120.694 2.00165L120.516 2.49309L120.383 2.81508L119.871 4.87125L119.785 5.14239L118.645 9.6332L118.363 10.4862L118.328 10.8872V11.6498L118.46 11.9605L118.823 12.5875L119.238 12.9095L119.514 13.0394L119.975 13.1637H127.74L127.798 13.2202V13.3558L127.608 14.2483L127.009 16.7168L126.739 17.6602L126.693 17.8409L126.601 17.8918H116.768L116.584 17.9257L116.492 17.9709V18.146L116.313 18.8747L115.254 22.9079L114.793 24.7099V24.7494L114.897 24.7946H134.551H135.103L135.426 24.7494H135.978L136.98 24.5743L137.625 24.3032L138.166 23.9417L138.581 23.5801L138.955 23.1282L139.266 22.682L139.542 22.055L139.772 21.1624L140.267 19.1854L140.826 17.0332L140.912 16.762L141.597 14.0675L141.701 13.5309L141.781 13.2654L141.879 12.7683V12.0057L141.781 11.5086L141.597 11.0228L141.327 10.746L141.05 10.5257L140.595 10.2998L140.043 10.215H132.041L131.857 10.1698L131.816 10.1246L131.954 9.53717L132.455 7.56573L132.91 5.91063L132.956 5.80895H142.196L142.328 5.72987L142.42 5.55475L142.553 5.05766L142.881 3.70759L143.388 1.7305L143.75 0.250513L143.704 0.205322H123.354Z" fill="white"/>
</svg>
