<svg width="150" height="44" viewBox="0 0 150 44" fill="none" xmlns="http://www.w3.org/2000/svg">
<path d="M12.6569 9.54838C14.0934 8.20951 15.8066 7.10442 18.7274 7.40726C20.4246 7.58258 22.0206 8.69299 22.7974 9.92029C23.7444 11.4132 23.7923 13.5331 23.7497 15.8442C23.7497 18.7133 23.7604 21.8692 23.7604 24.5522H20.3341C20.3341 22.2145 20.3075 18.7133 20.3075 15.9664C20.3075 15.2173 20.3448 14.5213 20.2809 13.9103C20.0947 12.2102 18.871 10.8129 16.9504 10.8076C14.3488 10.7969 13.6306 12.7308 13.4922 15.4298C13.4922 18.3413 13.5454 21.8957 13.5454 24.5575H10.1405C10.1405 21.7151 10.1883 18.4317 10.1883 15.552C10.1883 15.0367 10.1883 14.5373 10.1405 14.0591C9.917 11.6736 7.41115 9.82466 4.9585 11.3229C4.618 11.5301 4.24026 11.8808 4.03277 12.2367C3.39434 13.0337 3.47414 14.3885 3.4369 15.8708C3.41562 16.7528 3.47946 22.9052 3.47946 24.5522H0V12.8743C0 9.82997 2.94212 7.69947 5.7725 7.40726C8.87423 7.08848 11.0821 8.09263 12.6569 9.54838Z" fill="#F8F8F8"/>
<path d="M41.5196 17.385H30.9376C30.4587 21.9117 36.4387 22.6502 38.7105 19.9724C39.5724 20.6366 40.4821 21.2582 41.1525 22.1189C38.9286 25.3013 32.4698 25.5404 29.7565 22.9318C27.6124 20.8756 27.0218 16.875 27.6815 13.4694C28.3679 9.93623 30.8045 7.07254 35.231 7.40726C39.9129 7.76323 42.0357 11.7426 41.5249 17.385H41.5196ZM33.8211 10.6588C31.991 10.9032 31.0333 12.444 30.9322 14.5001H38.0348C37.9444 11.9817 36.444 10.3081 33.8158 10.6588H33.8211Z" fill="#F8F8F8"/>
<path d="M48.6795 2.41846V7.51891H51.1853C51.1853 8.28929 51.196 9.29875 51.196 10.1807H48.6848C48.6848 11.6843 48.6795 13.6979 48.6848 15.754C48.6848 16.7741 48.6741 17.7995 48.6741 18.7558C48.6741 19.6537 48.5571 20.796 49.137 21.1786C49.5733 21.4655 50.5043 21.3751 51.1906 21.3751V24.5257C47.8176 24.802 45.466 23.8457 45.2692 21.1254C45.1468 19.4731 45.2372 17.6029 45.2372 15.6796C45.317 13.7988 45.2692 11.9606 45.2692 10.186H43.4922V7.52422H45.2638C45.2638 5.99409 45.2532 3.96984 45.2532 2.42377H48.6795V2.41846Z" fill="#F8F8F8"/>
<path d="M67.5736 17.3851H56.9915C56.6723 21.8905 62.4395 22.6821 64.7644 19.9725C65.6263 20.6366 66.5414 21.2529 67.2065 22.1189C65.6795 23.7128 63.9185 24.7807 61.0615 24.7807C56.0285 24.7807 53.5493 21.3167 53.512 16.2056C53.4801 11.4292 55.7572 6.88135 61.4286 7.41264C65.9828 7.83768 68.1109 11.7799 67.5736 17.3904V17.3851ZM59.8751 10.6589C58.0449 10.9086 57.1032 12.444 56.9862 14.5001H64.1632C64.0462 11.9924 62.5406 10.2923 59.8698 10.6589H59.8751Z" fill="#F8F8F8"/>
<path d="M76.3036 7.48171C79.9054 7.0673 82.5921 8.87902 83.6296 11.1742C84.5713 13.2516 84.6724 19.0534 83.5551 21.152C80.8577 26.2152 72.9784 25.6893 70.9726 20.8545C69.8128 18.0651 70.164 13.0072 71.1216 11.0255C72.0101 9.18186 73.8562 7.75799 76.3036 7.4764V7.48171ZM74.085 12.8744C73.4785 14.3514 73.5051 18.028 74.1595 19.4518C75.0799 21.4495 78.0859 21.9702 79.7086 20.5622C81.012 19.4359 81.4376 14.9358 80.597 12.8744C80.1235 11.7108 78.703 10.7173 76.9686 10.8767C75.33 11.0308 74.5106 11.833 74.0797 12.8744H74.085Z" fill="#F8F8F8"/>
<path d="M87.9268 0.755493H91.4009V9.25624C92.1351 8.83121 92.6831 8.20959 93.4759 7.85362C96.7585 6.36599 100.467 8.5018 101.249 11.1795C101.871 13.31 101.802 19.7494 100.882 21.3804C100.722 21.6673 100.499 22.0074 100.291 22.2677C97.5618 25.5989 91.0179 25.5511 88.7461 21.7523C87.448 19.5793 87.9321 15.0739 87.9321 11.7746V0.983951C87.9321 1.01583 87.9321 0.755493 87.9321 0.760806L87.9268 0.755493ZM92.6618 11.3974C90.9913 12.6831 90.9434 18.4689 92.1458 20.2647C93.3216 22.018 96.6946 21.4973 97.5459 19.8928C98.179 18.7027 98.1896 16.1525 98.0619 14.4258C97.881 11.9552 96.8808 10.6536 94.359 10.8767C93.5663 10.9458 93.0875 11.0627 92.6565 11.3921H92.6618V11.3974Z" fill="#F8F8F8"/>
<path d="M105.321 0.755442H108.795C108.795 5.39366 108.779 10.9776 108.779 16.2002V20.2168C108.779 20.6366 108.912 20.95 109.051 21.0775C109.54 21.5185 110.673 21.3007 111.237 21.3751V24.5522C110.546 24.6107 109.875 24.6213 109.247 24.5682C106.992 24.3822 105.672 23.6012 105.3 21.1519C105.289 21.0829 105.289 21.0191 105.289 20.95C105.289 18.0704 105.316 14.447 105.316 11.0307V2.74781C105.316 2.14213 105.316 0.606679 105.316 0.75013H105.321V0.755442Z" fill="#F8F8F8"/>
<path d="M114.052 7.55603H117.383C117.383 10.3719 117.383 14.3088 117.383 17.2044C117.383 17.7144 117.394 18.1926 117.447 18.6283C117.537 19.388 117.894 19.8343 118.154 20.185C118.511 20.6525 118.74 20.8385 119.298 21.0828C120.256 21.4973 121.373 21.4441 122.107 21.1572C123.374 20.6684 124.118 19.3827 124.118 17.7197C124.129 17.6294 124.14 17.5391 124.145 17.4488C124.145 14.4629 124.102 10.356 124.102 7.56134H127.582C127.491 8.8949 127.582 10.2922 127.582 11.7001V19.5368C127.582 21.3538 125.459 23.904 122.591 24.6053C119.836 25.2801 116.361 24.1909 114.85 21.9754C114.393 21.306 113.914 20.5144 113.914 19.5155C113.914 16.2587 113.962 11.3548 113.962 7.57728C113.962 7.55603 113.951 7.57728 114.036 7.56666L114.047 7.55603H114.052Z" fill="#F8F8F8"/>
<path d="M145.138 17.3851H134.555C134.178 21.8745 140.019 22.6821 142.328 19.9725C143.238 20.541 143.956 21.3007 144.77 21.9702C143.43 23.7235 141.493 24.7595 138.7 24.7807C134.135 24.8073 131.47 21.8161 131.15 17.4648C130.757 12.0562 132.912 6.89198 138.923 7.41265C143.541 7.81643 145.691 11.7268 145.143 17.3904L145.138 17.3851ZM137.46 10.6642C135.63 10.9139 134.683 12.4493 134.571 14.5055H141.748C141.631 11.9977 140.126 10.2976 137.455 10.6642H137.46Z" fill="#F8F8F8"/>
<path d="M149.998 4.88902C149.998 6.13225 149.025 7.10452 147.753 7.10452C146.482 7.10452 145.492 6.13225 145.492 4.88902C145.492 3.64578 146.492 2.70007 147.753 2.70007C149.014 2.70007 149.998 3.67235 149.998 4.88902ZM146.051 4.88902C146.051 5.8666 146.774 6.63698 147.764 6.63698C148.754 6.63698 149.435 5.86129 149.435 4.89964C149.435 3.93799 148.727 3.13574 147.748 3.13574C146.769 3.13574 146.051 3.92206 146.051 4.8837V4.88902ZM147.402 6.03662H146.891V3.84767C147.094 3.80517 147.37 3.77861 147.732 3.77861C148.147 3.77861 148.333 3.84767 148.493 3.93799C148.615 4.03363 148.706 4.20364 148.706 4.41616C148.706 4.65525 148.519 4.8412 148.253 4.92621V4.95277C148.466 5.03247 148.589 5.19186 148.652 5.48938C148.722 5.8241 148.759 5.95692 148.812 6.03662H148.264C148.195 5.95692 148.158 5.75503 148.088 5.50001C148.046 5.26092 147.913 5.15466 147.636 5.15466H147.397V6.03662H147.402ZM147.418 4.79338H147.658C147.94 4.79338 148.168 4.69775 148.168 4.4746C148.168 4.27271 148.019 4.13989 147.7 4.13989C147.567 4.13989 147.471 4.15583 147.418 4.16645V4.79338Z" fill="#F8F8F8"/>
<path d="M140.356 42.0319C141.143 42.0319 141.51 41.405 141.915 40.4008L140.026 36.0495C139.999 35.9858 139.978 35.9008 139.978 35.7945C139.978 35.4279 140.271 35.1304 140.643 35.1304C141.015 35.1304 141.196 35.3854 141.255 35.5448L142.606 38.9504L143.958 35.5448C144.016 35.3854 144.202 35.1304 144.569 35.1304C144.937 35.1304 145.234 35.4226 145.234 35.7945C145.234 35.9061 145.208 35.9911 145.187 36.0495L142.904 41.1978C142.367 42.3985 141.59 43.2592 140.361 43.2592C140.005 43.2592 139.723 43.0042 139.723 42.6482C139.723 42.2922 140.005 42.0372 140.361 42.0372H140.356V42.0319Z" fill="#F8F8F8"/>
<path d="M137.389 35.056C139.06 35.056 139.454 36.1239 139.454 37.1865V40.2521C139.454 40.6187 139.161 40.8897 138.788 40.8897C138.395 40.8897 138.123 40.6187 138.123 40.2521V37.4309C138.123 36.7296 137.841 36.2514 137.043 36.2514C136.123 36.2514 135.814 36.7934 135.814 37.5159V40.2521C135.814 40.6187 135.532 40.8897 135.149 40.8897C134.766 40.8897 134.484 40.6187 134.484 40.2521V35.7892C134.484 35.4226 134.777 35.1251 135.149 35.1251C135.522 35.1251 135.814 35.4173 135.814 35.7892C136.049 35.4333 136.565 35.056 137.384 35.056H137.389Z" fill="#F8F8F8"/>
<path d="M130.9 36.2354C130.362 36.2354 129.979 36.4798 129.671 36.703C129.548 36.788 129.447 36.8252 129.304 36.8252C128.984 36.8252 128.729 36.5702 128.729 36.2514C128.729 36.1186 128.777 35.9698 128.889 35.8476C129.234 35.4704 129.846 35.0613 130.9 35.0613C132.421 35.0613 133.331 35.8104 133.331 37.1068V40.2467C133.331 40.6027 133.038 40.8949 132.682 40.8949C132.326 40.8949 132.033 40.6027 132.033 40.2467C131.703 40.7727 131.16 40.9587 130.426 40.9587C129.224 40.9587 128.426 40.2095 128.426 39.1098C128.426 38.01 129.346 37.383 130.416 37.383H132.022V37.1599C132.022 36.6074 131.618 36.2408 130.905 36.2408H130.9V36.2354ZM130.767 39.8483C131.416 39.8483 132.017 39.4339 132.017 38.7432V38.3978H130.58C130.043 38.3978 129.745 38.6528 129.745 39.0991C129.745 39.5454 130.075 39.8483 130.767 39.8483Z" fill="#F8F8F8"/>
<path d="M123.787 35.7892C123.973 35.4811 124.548 35.056 125.234 35.056C126.841 35.056 127.724 36.0017 127.724 37.9994C127.724 39.9971 126.83 40.9534 125.234 40.9534C124.622 40.9534 124.08 40.7568 123.787 40.4274V42.5951C123.787 42.9617 123.494 43.2593 123.122 43.2593C122.75 43.2593 122.457 42.967 122.457 42.5951V35.7892C122.457 35.4226 122.75 35.1251 123.122 35.1251C123.494 35.1251 123.787 35.4173 123.787 35.7892ZM126.373 38.01C126.373 36.7987 125.921 36.1824 125.059 36.1824C124.197 36.1824 123.745 36.7934 123.745 38.01C123.745 39.2267 124.197 39.8218 125.059 39.8218C125.921 39.8218 126.373 39.2108 126.373 38.01Z" fill="#F8F8F8"/>
<path d="M119.11 35.056C120.781 35.056 121.233 36.1239 121.233 37.1865V40.2521C121.233 40.6186 120.941 40.8896 120.568 40.8896C120.174 40.8896 119.903 40.6186 119.903 40.2521V37.4309C119.903 36.7296 119.621 36.2514 118.823 36.2514C117.94 36.2514 117.594 36.7296 117.594 37.4149V40.2467C117.594 40.6133 117.302 40.8843 116.929 40.8843C116.535 40.8843 116.264 40.6133 116.264 40.2467V37.4256C116.264 36.7242 115.982 36.2461 115.184 36.2461C114.264 36.2461 113.955 36.788 113.955 37.5106V40.2467C113.955 40.6133 113.673 40.8843 113.29 40.8843C112.907 40.8843 112.625 40.6133 112.625 40.2467V35.7838C112.625 35.4173 112.918 35.1197 113.29 35.1197C113.662 35.1197 113.955 35.4119 113.955 35.7838C114.189 35.4279 114.705 35.0507 115.525 35.0507C116.53 35.0507 117.036 35.3694 117.339 35.8476C117.732 35.3216 118.259 35.0507 119.094 35.0507H119.11V35.056Z" fill="#F8F8F8"/>
<path d="M111.666 38.01C111.666 40.0077 110.634 40.9534 108.98 40.9534C107.325 40.9534 106.293 40.0077 106.293 38.01C106.293 36.0124 107.325 35.056 108.98 35.056C110.634 35.056 111.666 36.0017 111.666 38.01ZM110.331 38.01C110.331 36.7987 109.863 36.1824 108.98 36.1824C108.097 36.1824 107.628 36.7934 107.628 38.01C107.628 39.2267 108.097 39.8218 108.98 39.8218C109.863 39.8218 110.331 39.2108 110.331 38.01Z" fill="#F8F8F8"/>
<path d="M102.345 40.9641C99.9031 40.9641 98.5039 39.6783 98.5039 36.6712C98.5039 33.664 99.9031 32.3677 102.345 32.3677C103.83 32.3677 104.798 32.9574 105.303 33.6906C105.399 33.8394 105.436 33.9616 105.436 34.0944C105.436 34.4504 105.144 34.7426 104.771 34.7426C104.601 34.7426 104.425 34.6682 104.266 34.4982C103.76 33.9456 103.234 33.6428 102.34 33.6428C100.707 33.6428 99.9723 34.6469 99.9723 36.6712C99.9723 38.8176 100.707 39.6889 102.34 39.6889C103.25 39.6889 103.739 39.4817 104.33 38.8814C104.526 38.6848 104.686 38.6104 104.856 38.6104C105.223 38.6104 105.521 38.9026 105.521 39.2745C105.521 39.4233 105.473 39.5455 105.399 39.6411C104.808 40.4275 103.654 40.9641 102.34 40.9641H102.345Z" fill="#F8F8F8"/>
<path d="M92.6417 35.056C94.3122 35.056 94.7645 36.1239 94.7645 37.1865V40.2521C94.7645 40.6186 94.4718 40.8896 94.0994 40.8896C93.7057 40.8896 93.4344 40.6186 93.4344 40.2521V37.4309C93.4344 36.7296 93.1524 36.2514 92.3544 36.2514C91.4712 36.2514 91.1254 36.7296 91.1254 37.4149V40.2467C91.1254 40.6133 90.8328 40.8843 90.4604 40.8843C90.0667 40.8843 89.7953 40.6133 89.7953 40.2467V37.4256C89.7953 36.7242 89.5133 36.2461 88.7153 36.2461C87.7949 36.2461 87.4863 36.788 87.4863 37.5106V40.2467C87.4863 40.6133 87.2043 40.8843 86.8213 40.8843C86.4382 40.8843 86.1562 40.6133 86.1562 40.2467V35.7838C86.1562 35.4173 86.4489 35.1197 86.8213 35.1197C87.1937 35.1197 87.4863 35.4119 87.4863 35.7838C87.7204 35.4279 88.2365 35.0507 89.0558 35.0507C90.0613 35.0507 90.5668 35.3694 90.87 35.8476C91.2637 35.3216 91.7904 35.0507 92.6257 35.0507H92.6417V35.056Z" fill="#F8F8F8"/>
<path d="M85.1977 38.01C85.1977 40.0077 84.1656 40.9534 82.511 40.9534C80.8564 40.9534 79.8242 40.0077 79.8242 38.01C79.8242 36.0124 80.8564 35.056 82.511 35.056C84.1656 35.056 85.1977 36.0017 85.1977 38.01ZM83.8623 38.01C83.8623 36.7987 83.3941 36.1824 82.511 36.1824C81.6278 36.1824 81.1596 36.7934 81.1596 38.01C81.1596 39.2267 81.6278 39.8218 82.511 39.8218C83.3941 39.8218 83.8623 39.2108 83.8623 38.01Z" fill="#F8F8F8"/>
<path d="M74.2891 37.9994C74.2891 36.0017 75.284 35.056 76.9545 35.056C78.0824 35.056 78.7368 35.6192 78.9549 35.9008C79.0507 36.0336 79.0879 36.1346 79.0879 36.2833C79.0879 36.6127 78.8326 36.8731 78.4974 36.8731C78.3005 36.8731 78.1516 36.7881 78.0452 36.6659C77.8856 36.4958 77.5664 36.1877 76.9545 36.1877C76.098 36.1877 75.6298 36.8518 75.6298 37.9994C75.6298 39.147 76.098 39.8271 76.9545 39.8271C77.5185 39.8271 77.8856 39.5455 78.1675 39.3383C78.3005 39.2427 78.4123 39.2161 78.5346 39.2161C78.8645 39.2161 79.1252 39.4711 79.1252 39.8058C79.1252 39.9758 79.0667 40.1246 78.9177 40.2574C78.6357 40.5124 77.9601 40.9587 76.9545 40.9587C75.284 40.9587 74.2891 40.0024 74.2891 38.0047V37.9994Z" fill="#F8F8F8"/>
<path d="M72.5587 40.8896C72.0426 40.8896 71.75 40.6346 71.75 40.0927C71.75 39.5508 72.0426 39.2692 72.5587 39.2692C73.0748 39.2692 73.3567 39.5401 73.3567 40.0927C73.3567 40.6452 73.0748 40.8896 72.5587 40.8896Z" fill="#F8F8F8"/>
<path d="M67.2542 42.0319C68.0416 42.0319 68.4087 41.405 68.813 40.4008L66.9243 36.0495C66.8977 35.9858 66.8765 35.9008 66.8765 35.7945C66.8765 35.4279 67.1691 35.1304 67.5415 35.1304C67.9139 35.1304 68.0948 35.3854 68.1533 35.5448L69.5047 38.9504L70.856 35.5448C70.9199 35.3854 71.1008 35.1304 71.4679 35.1304C71.835 35.1304 72.1329 35.4226 72.1329 35.7945C72.1329 35.9061 72.1063 35.9911 72.085 36.0495L69.8026 41.1978C69.2653 42.3985 68.4885 43.2592 67.2595 43.2592C66.9031 43.2592 66.6211 43.0042 66.6211 42.6482C66.6211 42.2922 66.9031 42.0372 67.2595 42.0372L67.2542 42.0319Z" fill="#F8F8F8"/>
<path d="M64.9076 38.4988V36.8092C64.9076 36.8092 64.4288 36.1823 63.6946 36.1823C62.8593 36.1823 62.3805 36.7933 62.3805 38.01C62.3805 39.2266 62.8487 39.8217 63.6946 39.8217C64.4075 39.8217 64.9076 39.3435 64.9076 38.4988ZM63.5563 35.056C64.1468 35.056 64.6629 35.3004 64.9076 35.5448V32.7236C64.9076 32.357 65.2003 32.0594 65.5727 32.0594C65.9451 32.0594 66.2377 32.3517 66.2377 32.7236V38.4988C66.2377 40.1298 65.1843 40.948 63.6946 40.948C62.0347 40.948 61.0664 40.0023 61.0664 38.0047C61.0664 36.007 62.0134 35.0507 63.5563 35.0507V35.056Z" fill="#F8F8F8"/>
<path d="M58.0924 35.056C59.7629 35.056 60.1566 36.1239 60.1566 37.1865V40.2521C60.1566 40.6187 59.864 40.8897 59.4916 40.8897C59.0979 40.8897 58.8266 40.6187 58.8266 40.2521V37.4309C58.8266 36.7296 58.5446 36.2514 57.7466 36.2514C56.8261 36.2514 56.5176 36.7934 56.5176 37.5159V40.2521C56.5176 40.6187 56.2356 40.8897 55.8525 40.8897C55.4695 40.8897 55.1875 40.6187 55.1875 40.2521V35.7892C55.1875 35.4226 55.4801 35.1251 55.8525 35.1251C56.225 35.1251 56.5176 35.4173 56.5176 35.7892C56.7517 35.4333 57.2677 35.056 58.0871 35.056H58.0924Z" fill="#F8F8F8"/>
<path d="M53.9681 35.7892V40.2255C53.9681 40.5921 53.6754 40.8896 53.303 40.8896C52.9306 40.8896 52.638 40.5974 52.638 40.2255V35.7892C52.638 35.4226 52.9306 35.1251 53.303 35.1251C53.6754 35.1251 53.9681 35.4173 53.9681 35.7892ZM53.303 34.4663C52.7976 34.4663 52.5156 34.174 52.5156 33.6959C52.5156 33.1327 52.7976 32.8883 53.303 32.8883C53.8085 32.8883 54.1011 33.1327 54.1011 33.6959C54.1011 34.174 53.8191 34.4663 53.303 34.4663Z" fill="#F8F8F8"/>
<path d="M48.2971 40.3637L46.8872 35.3376L45.4773 40.3637C45.3922 40.6718 45.1208 40.8896 44.791 40.8896C44.4611 40.8896 44.2004 40.6824 44.1153 40.4008L42.0138 33.3771C41.9872 33.3027 41.9766 33.2443 41.9766 33.154C41.9766 32.7608 42.2958 32.442 42.6895 32.442C43.0832 32.442 43.3013 32.7236 43.3652 32.9308L44.8016 38.0791L46.2009 32.9574C46.286 32.6386 46.5839 32.442 46.8872 32.442C47.1904 32.442 47.4884 32.6386 47.5735 32.9574L48.9727 38.0791L50.4092 32.9308C50.4731 32.7236 50.6912 32.442 51.0849 32.442C51.4786 32.442 51.7978 32.7608 51.7978 33.154C51.7978 33.239 51.7872 33.3027 51.7606 33.3771L49.659 40.4008C49.5739 40.6824 49.3026 40.8896 48.9834 40.8896C48.6642 40.8896 48.3822 40.6665 48.2971 40.3637Z" fill="#F8F8F8"/>
<path d="M36.1528 37.3458L35.1473 34.769L34.1418 37.3458H36.1528ZM36.6316 38.6475H33.6629L32.9128 40.4273C32.801 40.6824 32.567 40.8949 32.2477 40.8949C31.87 40.8949 31.5508 40.5761 31.5508 40.1936C31.5508 40.1192 31.5614 40.0236 31.5987 39.9386L34.4929 32.8882C34.5674 32.7182 34.7642 32.4473 35.142 32.4473C35.5197 32.4473 35.7166 32.7182 35.791 32.8882L38.6853 39.9386C38.7225 40.0236 38.7332 40.1245 38.7332 40.1936C38.7332 40.5761 38.4139 40.8949 38.0309 40.8949C37.7117 40.8949 37.4776 40.6877 37.3658 40.4273L36.6157 38.6475H36.6316Z" fill="#F8F8F8"/>
</svg>
