<svg width="110" height="52" viewBox="0 0 110 52" fill="none" xmlns="http://www.w3.org/2000/svg">
<path d="M109.062 37.4358H0.0078125V51.7468H109.062V37.4358Z" fill="#194060"/>
<path d="M13.261 15.4861C13.7265 15.4839 14.1842 15.3658 14.5929 15.1425C15.016 14.9135 15.3949 14.6104 15.7115 14.2476C16.0459 13.8877 16.3131 13.4703 16.5003 13.0156C16.7015 12.5739 16.8057 12.0941 16.8057 11.6085C16.8057 11.1229 16.7015 10.643 16.5003 10.2014C16.3113 9.74364 16.0444 9.32237 15.7115 8.95636C15.3946 8.59554 15.0158 8.29465 14.5929 8.068C14.183 7.84763 13.7261 7.72973 13.261 7.72433H7.5132V15.5056L13.261 15.4861ZM7.5132 32.9939H0.0390625V0.215422H13.2287C14.7126 0.209186 16.1799 0.527854 17.5283 1.14917C18.8474 1.7477 20.0394 2.59528 21.0391 3.64566C22.0416 4.69665 22.8437 5.923 23.4054 7.26394C23.9753 8.63882 24.2686 10.1131 24.2686 11.602C24.2686 13.0909 23.9753 14.5652 23.4054 15.94C22.8421 17.2801 22.0402 18.5062 21.0391 19.5583C20.0377 20.6067 18.8461 21.454 17.5283 22.0548C16.1785 22.6711 14.7118 22.9874 13.2287 22.9821H7.50027L7.5132 32.9939Z" fill="white"/>
<path d="M43.9744 18.3524C43.7092 17.7995 43.3651 17.2883 42.9528 16.8351C42.5517 16.4153 42.0842 16.0647 41.5692 15.7976C40.9273 15.4701 40.2137 15.3095 39.4938 15.3307C38.7354 15.2994 37.9839 15.4862 37.3278 15.8689C36.7976 16.1861 36.3271 16.5944 35.9377 17.075C35.5375 17.5856 35.221 18.1569 35.0002 18.7674C35.1037 18.7026 35.2136 18.6377 35.3171 18.5859C35.4205 18.534 35.5627 18.4886 35.6856 18.4497C35.8335 18.4002 35.9887 18.3761 36.1446 18.3784L43.9744 18.3524ZM51.6425 19.7012C51.6692 20.3409 51.5264 20.9763 51.2287 21.5427C50.9587 22.034 50.5859 22.4609 50.136 22.7942C49.6955 23.1108 49.2031 23.3478 48.6813 23.4945C48.1867 23.6341 47.6756 23.7061 47.1619 23.7085H35.3559C35.5141 24.2495 35.7876 24.7495 36.1576 25.174C36.5118 25.5787 36.9314 25.9207 37.399 26.1855C38.0298 26.5099 38.7339 26.6641 39.4421 26.633C39.8662 26.6348 40.2877 26.5669 40.6899 26.4319C41.1037 26.2958 41.4916 26.1466 41.8925 25.9845C42.2934 25.8224 42.6942 25.6733 43.0951 25.5371C43.52 25.404 43.9625 25.3363 44.4076 25.3361C45.0483 25.3238 45.6846 25.4452 46.2761 25.6927C46.8314 25.9464 47.3355 26.3003 47.7632 26.7367L49.6511 28.6366C48.3065 30.1333 46.6691 31.3363 44.8408 32.1706C43.1595 32.9392 41.3349 33.3414 39.4873 33.3508C37.8346 33.3577 36.1979 33.0268 34.677 32.3781C33.2051 31.7562 31.8678 30.8533 30.7395 29.7195C29.6152 28.5889 28.7137 27.2558 28.0821 25.79C27.4326 24.2775 27.0977 22.6481 27.0977 21.0013C27.0977 19.3545 27.4326 17.725 28.0821 16.2126C28.7135 14.7429 29.6149 13.4054 30.7395 12.2701C31.8788 11.1346 33.227 10.2318 34.7093 9.61148C36.2283 8.9566 37.8663 8.62539 39.5196 8.63882C40.9151 8.6385 42.2984 8.89795 43.5994 9.40398C46.1861 10.4035 48.3907 12.199 49.8968 14.5331C50.6387 15.663 51.1791 16.9137 51.4938 18.2292C51.5604 18.5009 51.5951 18.7794 51.5972 19.0592V19.7076" fill="white"/>
<path d="M58.0804 25.375C58.4339 25.1875 58.8068 25.0396 59.1925 24.934C59.5969 24.8115 60.0179 24.7525 60.4403 24.7589C60.9783 24.7631 61.5004 24.943 61.9274 25.2712C62.3929 25.6149 62.9296 25.978 63.505 26.3606C63.6617 26.4608 63.8345 26.5332 64.0158 26.5746C64.2098 26.6263 64.4098 26.6525 64.6106 26.6524C64.7987 26.6538 64.9854 26.6185 65.1602 26.5486C65.3378 26.4887 65.504 26.3988 65.6515 26.2828C65.7989 26.1677 65.9219 26.0244 66.0136 25.8613C66.1162 25.7055 66.1702 25.5227 66.1688 25.3361V25.2258C66.1508 25.079 66.1024 24.9376 66.0265 24.8108C65.9316 24.6581 65.8006 24.5311 65.6451 24.4412C65.4085 24.3042 65.1622 24.185 64.908 24.0846C64.6106 23.9484 64.2227 23.7993 63.7636 23.6307C62.9037 23.3259 62.0502 22.9822 61.1774 22.5932C60.3581 22.2174 59.5979 21.7238 58.9209 21.1277C58.2581 20.5331 57.7196 19.8124 57.3369 19.0073C56.9023 18.0638 56.6963 17.0306 56.7356 15.9921C56.7294 14.9791 56.9691 13.9799 57.4339 13.0806C57.8912 12.1917 58.5171 11.401 59.2765 10.7527C60.0456 10.0955 60.92 9.57372 61.8627 9.20941C62.8212 8.83551 63.8408 8.64419 64.8692 8.64527C65.5458 8.6445 66.2188 8.7428 66.8671 8.93707C67.49 9.11826 68.0941 9.3593 68.6709 9.65683C69.2322 9.92814 69.7669 10.2516 70.2679 10.623C70.7007 10.9318 71.1172 11.263 71.5158 11.6151C71.818 11.875 72.1051 12.1522 72.3757 12.4451C72.602 12.7045 72.7377 12.8666 72.7895 12.9379L71.1278 14.76C70.7459 15.0873 70.3296 15.3722 69.8865 15.6095C69.4859 15.8119 69.0417 15.9121 68.5934 15.9013C68.3207 15.9128 68.0483 15.871 67.7916 15.7781C67.5912 15.6938 67.3778 15.603 67.1903 15.5057C66.9496 15.3948 66.7011 15.3016 66.4468 15.2269C66.0707 15.1485 65.6862 15.118 65.3024 15.1361C65.1248 15.1287 64.9474 15.157 64.7809 15.2193C64.6143 15.2817 64.4619 15.3769 64.3326 15.4993C64.2152 15.605 64.1208 15.7338 64.0552 15.8777C63.9895 16.0216 63.9541 16.1775 63.9511 16.3357C63.9521 16.4919 63.9761 16.647 64.0222 16.7961C64.041 16.8676 64.075 16.9342 64.1219 16.9913C64.1688 17.0484 64.2274 17.0946 64.2938 17.1268C64.4991 17.2506 64.7156 17.3548 64.9403 17.4381C65.1408 17.5094 65.3541 17.5678 65.5416 17.6261L66.3175 17.8142C66.6149 17.892 66.964 18.0022 67.4231 18.1384C68.2405 18.3923 69.0435 18.691 69.8283 19.0332C70.5367 19.3252 71.1921 19.7328 71.7679 20.2393C72.3302 20.7644 72.7715 21.4061 73.061 22.1198C73.3983 23.0295 73.5564 23.9963 73.5265 24.9664C73.5309 26.0581 73.3122 27.1391 72.8841 28.1428C72.456 29.1465 71.8275 30.0516 71.0373 30.8024C69.3118 32.4353 67.0216 33.3326 64.6494 33.3053C63.768 33.2953 62.8942 33.1397 62.0632 32.845C61.1738 32.5343 60.3334 32.0976 59.5675 31.5481C58.7453 30.9558 58.006 30.2558 57.3692 29.4666C56.6708 28.6224 56.076 27.6972 55.5977 26.7107L58.0804 25.375Z" fill="white"/>
<path d="M80.6136 25.3749C80.9688 25.1864 81.344 25.0385 81.7321 24.934C82.1342 24.811 82.5531 24.7519 82.9735 24.7589C83.5116 24.7621 84.0339 24.9421 84.4605 25.2711C84.9347 25.6213 85.4584 25.9844 86.0317 26.3605C86.1926 26.457 86.3669 26.5292 86.5489 26.5745C86.7451 26.6267 86.9472 26.6529 87.1502 26.6523C87.5253 26.6417 87.8874 26.5123 88.1847 26.2827C88.3323 26.1662 88.4573 26.0233 88.5532 25.8612C88.6508 25.7035 88.7023 25.5216 88.7019 25.336V25.2258C88.6832 25.0801 88.6372 24.9392 88.5661 24.8108C88.4646 24.6589 88.3297 24.5324 88.1717 24.4411C87.9395 24.3004 87.6949 24.181 87.4411 24.0845C87.1373 23.9483 86.7558 23.7992 86.3032 23.6306C85.4368 23.3258 84.5834 22.9822 83.717 22.5931C82.8977 22.2174 82.1375 21.7237 81.4605 21.1276C80.793 20.5311 80.2464 19.8112 79.8506 19.0072C79.4171 18.0632 79.209 17.0308 79.2429 15.992C79.2447 14.9769 79.4932 13.9776 79.967 13.0805C80.4262 12.1911 81.0544 11.4003 81.8161 10.7526C82.5848 10.095 83.4593 9.5731 84.4023 9.20935C85.3617 8.83847 86.3807 8.64726 87.4088 8.64521C88.0854 8.64443 88.7584 8.74274 89.4067 8.937C90.0296 9.1182 90.6337 9.35923 91.2105 9.65677C91.7576 9.93525 92.2809 10.2584 92.7752 10.6229C93.2072 10.93 93.6217 11.2613 94.0166 11.6151C94.3245 11.8732 94.616 12.1504 94.8894 12.4451C95.1028 12.7044 95.2515 12.8665 95.3032 12.9379L93.6157 14.7535C93.2344 15.0804 92.8205 15.3672 92.3808 15.6094C91.9796 15.8109 91.5363 15.9131 91.0877 15.9077C90.8148 15.9133 90.5432 15.8694 90.286 15.778C90.092 15.6937 89.8722 15.6029 89.6847 15.5057C89.4466 15.3937 89.2001 15.3005 88.9476 15.2268C88.5625 15.1336 88.1668 15.0922 87.7709 15.1036C87.5943 15.0971 87.4182 15.1258 87.2528 15.1881C87.0874 15.2505 86.9361 15.3452 86.8075 15.4668C86.6961 15.5674 86.6057 15.689 86.5413 15.8248C86.477 15.9606 86.44 16.1077 86.4325 16.2579C86.4335 16.414 86.4575 16.5691 86.5036 16.7183C86.5239 16.79 86.5592 16.8566 86.6071 16.9136C86.6551 16.9707 86.7146 17.0168 86.7816 17.049C86.9694 17.1718 87.1686 17.276 87.3765 17.3602C87.5705 17.4315 87.7903 17.4899 87.9778 17.5483L88.7536 17.7363C89.051 17.8141 89.4002 17.9243 89.8657 18.0605C90.6831 18.3144 91.4861 18.6132 92.2709 18.9554C92.9816 19.2429 93.6377 19.6509 94.2105 20.1615C94.7791 20.681 95.2214 21.3243 95.5036 22.0419C95.8403 22.952 96.0005 23.9182 95.9756 24.8886C95.9776 25.9805 95.7573 27.0613 95.3281 28.0648C94.899 29.0683 94.2701 29.9733 93.4799 30.7245C91.7503 32.3606 89.4566 33.2621 87.0791 33.2404C86.1826 33.2341 85.2933 33.0785 84.4476 32.7801C83.5614 32.4668 82.7235 32.0302 81.9584 31.4832C81.1366 30.8858 80.3936 30.1864 79.7472 29.4017C79.0694 28.5483 78.4923 27.6192 78.0273 26.6329L80.6136 25.3749Z" fill="white"/>
<path d="M109.022 0.196045H101.535V32.9875H109.022V0.196045Z" fill="white"/>
<path d="M7.4806 41.6765H6V48.1609H7.4806V41.6765Z" fill="white"/>
<path d="M18.4034 48.1609H16.9422L13.8388 43.6737V48.1609H12.3711V41.6765H13.8388C13.9703 41.6761 14.1011 41.6958 14.2267 41.7349C14.3273 41.7747 14.4147 41.8421 14.4789 41.9294L16.7353 45.2624C16.7753 45.3079 16.806 45.3607 16.8258 45.418L16.884 45.5801C16.8923 45.6255 16.9075 45.6692 16.9293 45.7098C16.9359 45.7331 16.9359 45.7578 16.9293 45.7811V41.683H18.4034V48.1609Z" fill="white"/>
<path d="M25.068 43.0902H24.8353L24.6413 43.1615C24.5886 43.1934 24.5407 43.2327 24.4991 43.2782C24.4677 43.3263 24.4519 43.3829 24.4538 43.4403C24.4486 43.5222 24.474 43.6031 24.5249 43.6673C24.5834 43.7301 24.6568 43.777 24.7383 43.8035C24.8611 43.8553 24.984 43.8943 25.1068 43.9332C25.2297 43.9721 25.4236 44.0239 25.6176 44.0888C25.8572 44.1658 26.0872 44.2703 26.3029 44.4C26.4972 44.5142 26.6755 44.6538 26.8331 44.815C27.1361 45.1604 27.2998 45.6066 27.2922 46.0665C27.2996 46.3657 27.233 46.662 27.0982 46.9289C26.9601 47.176 26.7783 47.3958 26.5616 47.5774C26.0946 47.9655 25.5064 48.1766 24.8999 48.1739C24.6448 48.1752 24.3913 48.1336 24.1499 48.0507C23.9201 47.9741 23.7024 47.8649 23.5034 47.7265C23.1264 47.4477 22.8387 47.0646 22.6758 46.6242L23.1478 46.3518C23.2226 46.3068 23.303 46.2719 23.387 46.2481C23.4729 46.2382 23.5597 46.2382 23.6456 46.2481C23.767 46.2406 23.888 46.2675 23.9947 46.3259L24.2986 46.501C24.3976 46.5669 24.5014 46.6255 24.609 46.6761C24.7189 46.7329 24.841 46.7618 24.9646 46.7603C25.0655 46.7616 25.166 46.7463 25.262 46.715C25.3656 46.6885 25.4655 46.6493 25.5594 46.5982C25.6452 46.5414 25.7216 46.4714 25.7857 46.3907C25.8454 46.3102 25.8771 46.2123 25.8762 46.1119C25.8802 46.0232 25.8527 45.9359 25.7986 45.8655C25.7315 45.8007 25.6552 45.7461 25.5723 45.7034C25.4641 45.6507 25.3517 45.6073 25.2361 45.5737L24.8482 45.431C24.6284 45.3489 24.4129 45.2581 24.2016 45.1587C23.9848 45.0646 23.7824 44.9402 23.6004 44.7891C23.431 44.6389 23.2907 44.4587 23.1866 44.2574C23.0771 44.0107 23.0241 43.7426 23.0314 43.4728C23.0238 43.2028 23.0838 42.9353 23.206 42.6946C23.3203 42.4633 23.481 42.258 23.6779 42.0916C23.8705 41.9349 24.0895 41.8142 24.3245 41.735C24.5752 41.6531 24.8367 41.6094 25.1004 41.6053C25.2927 41.6038 25.4836 41.639 25.6629 41.709C25.8451 41.7685 26.0189 41.8513 26.1801 41.9554C26.3427 42.0613 26.4963 42.1806 26.6391 42.3121C26.7764 42.443 26.9039 42.5839 27.0206 42.7336L26.5616 43.1161C26.4837 43.1939 26.3883 43.2517 26.2835 43.2847C26.1798 43.3213 26.0703 43.3389 25.9603 43.3366C25.8742 43.3431 25.7877 43.3431 25.7016 43.3366L25.5012 43.2458L25.3072 43.1745C25.2413 43.1486 25.1711 43.1354 25.1004 43.1356" fill="white"/>
<path d="M30.918 43.0513V41.6702H35.9869V43.0513H34.1895V48.161H32.7154V43.0513H30.918Z" fill="white"/>
<path d="M42.8425 44.6854C42.9335 44.6848 43.0227 44.6602 43.1012 44.6141C43.187 44.5707 43.2638 44.5112 43.3275 44.439C43.3923 44.3646 43.4467 44.2817 43.4891 44.1926C43.5603 44.0136 43.5603 43.814 43.4891 43.6349C43.4467 43.5458 43.3923 43.4629 43.3275 43.3885C43.2638 43.3163 43.187 43.2569 43.1012 43.2134C43.0222 43.1693 42.9329 43.1469 42.8425 43.1486H41.7046V44.6854H42.8425ZM41.7046 48.1481H40.2305V41.6637H42.765C42.9944 41.6615 43.223 41.6921 43.4438 41.7545C43.6399 41.8155 43.827 41.9028 43.9999 42.0138C44.1664 42.1163 44.3149 42.2455 44.4395 42.3964C44.566 42.5381 44.6746 42.6949 44.7628 42.8633C44.9314 43.1854 45.0201 43.5435 45.0214 43.9073C45.0281 44.0821 45.0085 44.257 44.9632 44.426C44.9255 44.599 44.8669 44.7666 44.7887 44.9253C44.7027 45.0935 44.5963 45.2503 44.4719 45.3922C44.3319 45.5492 44.1734 45.6886 43.9999 45.8072L45.7262 48.1416H44.3361C44.2581 48.1299 44.1821 48.1081 44.1098 48.0767C44.0181 48.0372 43.9313 47.9871 43.8512 47.9276C43.7545 47.8494 43.6696 47.7577 43.599 47.6552L42.5128 46.1833H41.7046V48.1481Z" fill="white"/>
<path d="M50.8705 45.5478C50.8696 45.7064 50.9027 45.8634 50.9675 46.0082C51.0308 46.1495 51.1208 46.2772 51.2326 46.3843C51.342 46.4974 51.4743 46.5858 51.6205 46.6436C51.7662 46.7077 51.9236 46.7408 52.0828 46.7408C52.2419 46.7408 52.3993 46.7077 52.5451 46.6436C52.6922 46.5875 52.8248 46.4988 52.933 46.3843C53.0487 46.2793 53.1412 46.1511 53.2045 46.0082C53.2693 45.8634 53.3024 45.7064 53.3015 45.5478V41.6571H54.7757V45.5478C54.7799 45.9071 54.7071 46.2631 54.5623 46.5918C54.4183 46.9038 54.2164 47.1854 53.9675 47.4218C53.7153 47.6613 53.4246 47.8564 53.1076 47.9989C52.7225 48.1588 52.306 48.228 51.8901 48.201C51.4743 48.174 51.0701 48.0516 50.7088 47.8432C50.5083 47.7271 50.3236 47.5854 50.1593 47.4218C49.9999 47.26 49.8609 47.0793 49.7455 46.8836C49.6255 46.681 49.5341 46.4628 49.4739 46.2351C49.4086 46.0054 49.378 45.7671 49.3834 45.5283V41.6377H50.8705V45.5478Z" fill="white"/>
<path d="M66.8866 48.161H65.4125V43.8489L63.8025 48.1804H62.5094L60.8478 43.8489V48.1804H59.3672V41.6961H60.99C61.0909 41.6953 61.1913 41.7106 61.2874 41.7415C61.3795 41.7687 61.4683 41.8056 61.5525 41.8517C61.6301 41.9015 61.6999 41.9627 61.7594 42.0333C61.8168 42.1033 61.8627 42.1821 61.8952 42.2667L63.0267 45.5089C63.0457 45.5613 63.0587 45.6157 63.0655 45.671C63.0775 45.728 63.0926 45.7842 63.1107 45.8396V46.0406C63.1042 45.9759 63.1042 45.9108 63.1107 45.8461V45.671C63.1241 45.6158 63.1414 45.5616 63.1624 45.5089L64.2874 42.2667C64.3184 42.1774 64.3643 42.0941 64.4232 42.0203C64.4875 41.9495 64.5615 41.8884 64.6431 41.8387C64.7273 41.7926 64.8161 41.7557 64.9081 41.7285C65.0049 41.719 65.1023 41.719 65.1991 41.7285H66.8025L66.8866 48.161Z" fill="white"/>
<path d="M75.9193 48.1609H71.6133V41.6766H75.9193V43.0577H73.0874V44.199H75.3891V45.5802H73.0874V46.7733H75.9193V48.1609Z" fill="white"/>
<path d="M86.4321 48.1609H84.9644L81.8739 43.6737V48.1609H80.4062V41.6765H81.8545C81.986 41.6768 82.1167 41.6965 82.2425 41.7349C82.3462 41.7722 82.4363 41.84 82.5011 41.9294L84.7575 45.2624C84.7894 45.3121 84.8175 45.3641 84.8416 45.418L84.9127 45.5801C84.9273 45.6223 84.9381 45.6657 84.945 45.7098V41.683H86.4321V48.1609Z" fill="white"/>
<path d="M90.5312 43.0513V41.6702H95.6002V43.0513H93.8093V48.161H92.3287V43.0513H90.5312Z" fill="white"/>
<path d="M101.6 43.0903H101.374C101.307 43.1061 101.242 43.1301 101.18 43.1616C101.123 43.1873 101.074 43.2276 101.038 43.2783C101.004 43.3258 100.986 43.3824 100.986 43.4404C100.984 43.5219 101.009 43.6019 101.057 43.6674C101.119 43.7321 101.197 43.7791 101.283 43.8035C101.401 43.8545 101.522 43.8979 101.645 43.9332C101.816 43.9766 101.984 44.0285 102.15 44.0889C102.389 44.1659 102.619 44.2703 102.835 44.4001C103.032 44.5105 103.211 44.6505 103.365 44.8151C103.507 44.9824 103.623 45.1705 103.708 45.3728C103.79 45.5926 103.832 45.8254 103.831 46.0601C103.833 46.3594 103.764 46.655 103.63 46.9225C103.498 47.1714 103.318 47.3918 103.1 47.571C102.876 47.7644 102.617 47.9139 102.337 48.0119C102.047 48.1169 101.741 48.1717 101.432 48.174C101.175 48.1721 100.92 48.1306 100.676 48.0508C100.447 47.9708 100.23 47.8619 100.029 47.7266C99.641 47.4484 99.3385 47.0664 99.1562 46.6242L99.6282 46.3454C99.7045 46.3051 99.7847 46.2725 99.8675 46.2482C99.9512 46.2221 100.038 46.209 100.126 46.2092C100.247 46.2096 100.366 46.2361 100.475 46.2871L100.779 46.4621L101.089 46.6437C101.199 46.7013 101.322 46.7282 101.445 46.7215C101.543 46.7218 101.641 46.7087 101.736 46.6826C101.844 46.6591 101.946 46.6175 102.04 46.5594C102.129 46.5068 102.208 46.4388 102.273 46.3584C102.33 46.2768 102.362 46.1796 102.363 46.0796C102.363 45.9893 102.331 45.902 102.273 45.8332C102.207 45.7663 102.131 45.7114 102.046 45.671C101.943 45.6184 101.834 45.575 101.723 45.5414L101.303 45.4376C101.074 45.3511 100.859 45.2604 100.656 45.1653C100.441 45.0687 100.239 44.9444 100.055 44.7957C99.7722 44.5363 99.5809 44.192 99.5098 43.8143C99.4387 43.4367 99.4916 43.0461 99.6606 42.7012C99.772 42.4679 99.9305 42.2603 100.126 42.0917C100.319 41.9375 100.538 41.819 100.773 41.7415C101.02 41.657 101.28 41.6132 101.542 41.6118C101.736 41.6114 101.928 41.6443 102.111 41.7091C102.292 41.7738 102.466 41.8586 102.628 41.962C102.789 42.0679 102.94 42.1872 103.081 42.3186C103.217 42.4483 103.339 42.591 103.462 42.7336L103.003 43.1227C102.925 43.2004 102.83 43.2582 102.725 43.2913C102.621 43.3258 102.512 43.3412 102.402 43.3367C102.316 43.3496 102.229 43.3496 102.143 43.3367L101.943 43.2524L101.755 43.1746C101.685 43.1647 101.613 43.1647 101.542 43.1746" fill="white"/>
</svg>
