<svg width="150" height="25" viewBox="0 0 150 25" fill="none" xmlns="http://www.w3.org/2000/svg">
<g clip-path="url(#clip0_8582_6742)">
<path fill-rule="evenodd" clip-rule="evenodd" d="M0.4629 23.5245V18.9845C3.03075 19.7978 5.30295 20.2045 7.2795 20.2045C10.0084 20.2045 11.3731 19.4786 11.3731 18.0278C11.3731 17.487 11.1746 17.0325 10.7765 16.6645C10.3693 16.2742 9.3267 15.7331 7.6512 15.0398C4.6449 13.7958 2.68455 12.735 1.7727 11.8576C0.59085 10.6994 0 9.23887 0 7.47389C0 5.20098 0.861 3.46861 2.5818 2.27812C4.28355 1.09804 6.4995 0.508606 9.2331 0.508606C10.7392 0.508606 12.9192 0.787549 15.7705 1.34619V5.71344C13.6489 4.86061 11.6796 4.4351 9.8601 4.4351C7.29795 4.4351 6.01695 5.14302 6.01695 6.56204C6.01695 7.09245 6.27495 7.52506 6.7917 7.86045C7.22145 8.13185 8.40555 8.70513 10.3414 9.58211C13.1289 10.8279 14.9845 11.9107 15.9091 12.8318C17.0062 13.9243 17.5558 15.338 17.5558 17.0709C17.5558 19.5616 16.4793 21.4615 14.3277 22.7706C12.5845 23.8322 10.3242 24.3608 7.548 24.3608C5.2035 24.3608 2.8413 24.0829 0.4629 23.5245Z" fill="white"/>
<path fill-rule="evenodd" clip-rule="evenodd" d="M21.1602 0.908081H27.5412V23.8963H21.1602V0.908081Z" fill="white"/>
<path fill-rule="evenodd" clip-rule="evenodd" d="M33.3906 23.8963V0.908081H49.7564V5.06597H39.5406V10.2568H48.4329V14.0494H39.5406V19.5046H50.0196V23.8963H33.3906Z" fill="white"/>
<path fill-rule="evenodd" clip-rule="evenodd" d="M54.1875 23.8963V0.908081H62.4608L68.2086 15.5965L74.1006 0.908081H81.959V23.8963H75.9088V7.62008L69.2092 24.1297H65.2539L58.6833 7.62008V23.8963H54.1875Z" fill="white"/>
<path fill-rule="evenodd" clip-rule="evenodd" d="M87.8125 23.8963V0.908081H104.178V5.06597H93.9631V10.2568H102.855V14.0494H93.9631V19.5046H104.443V23.8963H87.8125Z" fill="white"/>
<path fill-rule="evenodd" clip-rule="evenodd" d="M108.641 23.8964V0.908142H116.036L123.882 16.297V0.908142H128.377V23.8964H121.191L113.137 8.30044V23.8964H108.641Z" fill="white"/>
<path fill-rule="evenodd" clip-rule="evenodd" d="M132.906 23.5244V18.9845C135.452 19.7978 137.724 20.2044 139.724 20.2044C142.453 20.2044 143.816 19.4785 143.816 18.0278C143.816 17.487 143.623 17.0325 143.238 16.6645C142.829 16.2742 141.782 15.733 140.096 15.0397C137.099 13.8061 135.137 12.7457 134.216 11.8576C133.035 10.7096 132.445 9.24367 132.445 7.45816C132.445 5.19506 133.304 3.46842 135.027 2.27793C136.726 1.09786 138.945 0.508423 141.678 0.508423C143.215 0.508423 145.207 0.754008 147.65 1.24744L148.214 1.34601V5.71325C146.092 4.86042 144.117 4.43491 142.288 4.43491C139.735 4.43491 138.462 5.14284 138.462 6.56186C138.462 7.09227 138.719 7.52488 139.234 7.86027C139.644 8.12125 140.833 8.69484 142.801 9.58193C145.567 10.8277 147.419 11.9105 148.352 12.8316C149.451 13.9241 149.999 15.3379 149.999 17.0707C149.999 19.5614 148.929 21.4613 146.788 22.7705C145.035 23.832 142.769 24.3606 139.993 24.3606C137.646 24.3608 135.283 24.0829 132.906 23.5244Z" fill="white"/>
</g>
<defs>
<clipPath id="clip0_8582_6742">
<rect width="150" height="24" fill="white" transform="translate(0 0.5)"/>
</clipPath>
</defs>
</svg>
